<svg xmlns="http://www.w3.org/2000/svg" width="48" height="34" viewBox="0 0 48 34" fill="none"><path d="M45.5626 12.9938C44.3813 5.56875 37.9688 0 30.5438 0H16.8751C9.28131 0 2.86881 5.56875 1.68756 12.9938C0.506311 20.925 6.10352e-05 24.4688 6.10352e-05 25.8188C6.10352e-05 34.0875 11.3063 36.7875 15.0188 29.3625L17.8876 23.625H29.3626L32.2313 29.3625C35.9438 36.7875 47.2501 34.0875 47.2501 25.8188C47.2501 24.6375 47.2501 26.1563 45.5626 12.9938ZM43.8751 25.8188C43.8751 30.5438 37.2938 32.2313 35.2688 27.8438L31.8938 21.0938C31.5563 20.5875 31.0501 20.25 30.3751 20.25H16.8751C16.2001 20.25 15.6938 20.5875 15.3563 21.2625L11.9813 28.0125C9.95631 32.2313 3.37506 30.5438 3.37506 25.8188L5.06256 13.5C5.90631 7.7625 10.9688 3.375 16.7063 3.375H30.3751C36.2813 3.375 41.1751 7.7625 42.0188 13.5C42.1876 13.6688 44.0438 26.6625 43.8751 25.8188Z" fill="#A6D719"></path><path d="M20.2501 11.8125C20.2501 12.825 19.5751 13.5 18.5626 13.5H16.8751V15.1875C16.8751 16.2 16.2001 16.875 15.1876 16.875C14.1751 16.875 13.5001 16.2 13.5001 15.1875V13.5H11.8126C10.8001 13.5 10.1251 12.825 10.1251 11.8125C10.1251 10.8 10.8001 10.125 11.8126 10.125H13.5001V8.4375C13.5001 7.425 14.1751 6.75 15.1876 6.75C16.2001 6.75 16.8751 7.425 16.8751 8.4375V10.125H18.5626C19.5751 10.125 20.2501 10.8 20.2501 11.8125Z" fill="#A6D719"></path><path d="M30.3751 11.8125C30.3751 12.825 29.7001 13.5 28.6876 13.5C27.6751 13.5 27.0001 12.825 27.0001 11.8125C27.0001 10.8 27.6751 10.125 28.6876 10.125C29.7001 10.125 30.3751 10.8 30.3751 11.8125Z" fill="#A6D719"></path><path d="M33.7501 15.1875C33.7501 16.2 33.0751 16.875 32.0626 16.875C31.0501 16.875 30.3751 16.2 30.3751 15.1875C30.3751 14.175 31.0501 13.5 32.0626 13.5C33.0751 13.5 33.7501 14.175 33.7501 15.1875Z" fill="#A6D719"></path><path d="M37.1251 11.8125C37.1251 12.825 36.4501 13.5 35.4376 13.5C34.4251 13.5 33.7501 12.825 33.7501 11.8125C33.7501 10.8 34.4251 10.125 35.4376 10.125C36.4501 10.125 37.1251 10.8 37.1251 11.8125Z" fill="#A6D719"></path><path d="M30.3751 8.4375C30.3751 7.425 31.0501 6.75 32.0626 6.75C33.0751 6.75 33.7501 7.425 33.7501 8.4375C33.7501 9.45 33.0751 10.125 32.0626 10.125C31.0501 10.125 30.3751 9.45 30.3751 8.4375Z" fill="#A6D719"></path></svg>