<svg xmlns="http://www.w3.org/2000/svg" width="47" height="47" viewBox="0 0 47 47" fill="none"><path d="M39.6563 16.1061H34.9603C33.8358 16.1061 32.7658 16.5292 31.9475 17.2966L28.7569 20.2843C27.8712 21.1147 27.3634 22.2866 27.3634 23.5C27.3634 24.7135 27.8712 25.8853 28.7576 26.7158L31.9475 29.7035C32.7658 30.4709 33.8358 30.894 34.9603 30.894H39.6563C42.086 30.894 44.0625 28.9175 44.0625 26.4877V20.5123C44.0625 18.0826 42.086 16.1061 39.6563 16.1061ZM41.125 26.4877C41.125 27.2981 40.466 27.9565 39.6563 27.9565H34.9603C34.5852 27.9565 34.2288 27.8159 33.9563 27.5606L30.7663 24.5729C30.4659 24.2918 30.3009 23.9102 30.3009 23.5C30.3009 23.0898 30.4659 22.7083 30.7656 22.4272L33.9563 19.4395C34.2281 19.1841 34.5852 19.0436 34.9603 19.0436H39.6563C40.466 19.0436 41.125 19.7019 41.125 20.5123V26.4877Z" fill="#A6D719"></path><path d="M7.34375 30.894H12.0397C13.1635 30.894 14.2335 30.4709 15.0525 29.7035L18.2432 26.7158C19.1289 25.8853 19.6366 24.7135 19.6366 23.5C19.6366 22.2866 19.1289 21.1147 18.2425 20.2843L15.0525 17.2966C14.2335 16.5292 13.1635 16.1061 12.0397 16.1061H7.34375C4.914 16.1061 2.9375 18.0826 2.9375 20.5123V26.4877C2.9375 28.9175 4.914 30.894 7.34375 30.894ZM5.875 20.5123C5.875 19.7019 6.53407 19.0436 7.34375 19.0436H12.0397C12.4148 19.0436 12.7712 19.1841 13.0445 19.4395L16.2337 22.4272C16.5342 22.7083 16.6991 23.0898 16.6991 23.5C16.6991 23.9102 16.5342 24.2918 16.2344 24.5729L13.0445 27.5606C12.7712 27.8159 12.4148 27.9565 12.0397 27.9565H7.34375C6.53407 27.9565 5.875 27.2981 5.875 26.4877V20.5123Z" fill="#A6D719"></path><path d="M26.2503 27.7901C24.631 26.4963 22.369 26.4963 20.7497 27.7901L17.7606 30.1782C16.7085 31.0202 16.1053 32.2738 16.1053 33.6206V39.6563C16.1053 42.086 18.0818 44.0625 20.5116 44.0625H26.4884C28.9182 44.0625 30.8947 42.086 30.8947 39.6563V33.6206C30.8947 32.2738 30.2915 31.0202 29.2395 30.1782L26.2503 27.7901ZM27.9572 39.6563C27.9572 40.4667 27.2981 41.125 26.4884 41.125H20.5116C19.7019 41.125 19.0428 40.4667 19.0428 39.6563V33.6206C19.0428 33.1717 19.2444 32.7529 19.5951 32.4732L22.5835 30.085C23.1228 29.6547 23.8772 29.6547 24.4165 30.085L27.405 32.4732C27.7557 32.7529 27.9572 33.1717 27.9572 33.6206V39.6563Z" fill="#A6D719"></path><path d="M30.8947 13.3794V7.34375C30.8947 4.914 28.9182 2.9375 26.4884 2.9375H20.5116C18.0818 2.9375 16.1053 4.914 16.1053 7.34375V13.3794C16.1053 14.7262 16.7085 15.9798 17.7606 16.8218L20.7497 19.2099C21.5594 19.8568 22.5297 20.1795 23.5 20.1795C24.4703 20.1795 25.4407 19.8568 26.2511 19.2099L29.2395 16.8218C30.2915 15.9798 30.8947 14.7262 30.8947 13.3794ZM27.9572 13.3794C27.9572 13.8283 27.7557 14.2472 27.405 14.5269L24.4173 16.915C23.8765 17.3453 23.1228 17.3453 22.5835 16.915L19.5951 14.5269C19.2444 14.2472 19.0428 13.8283 19.0428 13.3794V7.34375C19.0428 6.53336 19.7019 5.875 20.5116 5.875H26.4884C27.2981 5.875 27.9572 6.53336 27.9572 7.34375V13.3794Z" fill="#A6D719"></path></svg>