<svg xmlns="http://www.w3.org/2000/svg" width="47" height="47" viewBox="0 0 47 47" fill="none"><path d="M23.5001 1.95831C18.337 1.9359 13.3758 3.96211 9.70461 7.59256C6.03341 11.223 3.95195 16.1613 3.91673 21.3243C3.91557 24.0723 4.50513 26.7886 5.64548 29.2889C6.78582 31.7892 8.45029 34.0151 10.5261 35.8159V38.728C10.5344 40.4087 11.2092 42.0175 12.4025 43.2013C13.5957 44.385 15.2099 45.0469 16.8907 45.0416H30.1094C31.7899 45.0469 33.4038 44.3852 34.597 43.2019C35.7902 42.0187 36.4652 40.4104 36.474 38.7299V35.8179C38.5501 34.0169 40.2147 31.7906 41.3551 29.2899C42.4954 26.7893 43.0848 24.0727 43.0834 21.3243C43.0482 16.1613 40.9667 11.223 37.2955 7.59256C33.6243 3.96211 28.6631 1.9359 23.5001 1.95831ZM33.2917 33.3641C33.0603 33.5475 32.8733 33.7809 32.7447 34.0467C32.6162 34.3126 32.5495 34.6041 32.5495 34.8994V38.7299C32.5413 39.3704 32.2801 39.9816 31.823 40.4303C31.3659 40.8789 30.7499 41.1287 30.1094 41.125H29.3751V35.25C29.3751 34.7306 29.1687 34.2325 28.8015 33.8652C28.4342 33.498 27.9361 33.2916 27.4167 33.2916C26.8974 33.2916 26.3992 33.498 26.032 33.8652C25.6647 34.2325 25.4584 34.7306 25.4584 35.25V41.125H21.5417V35.25C21.5417 34.7306 21.3354 34.2325 20.9682 33.8652C20.6009 33.498 20.1028 33.2916 19.5834 33.2916C19.064 33.2916 18.5659 33.498 18.1987 33.8652C17.8314 34.2325 17.6251 34.7306 17.6251 35.25V41.125H16.8907C16.2488 41.1307 15.6309 40.8819 15.1721 40.433C14.7133 39.9841 14.451 39.3718 14.4428 38.7299V34.8994C14.4438 34.6048 14.3782 34.3137 14.2511 34.0478C14.1239 33.782 13.9384 33.5483 13.7084 33.3641C11.8801 31.9343 10.401 30.1073 9.38315 28.0214C8.36529 25.9354 7.83534 23.6453 7.8334 21.3243C7.8334 17.1692 9.48399 13.1843 12.4221 10.2463C15.3601 7.3082 19.345 5.65761 23.5001 5.65761C27.6551 5.65761 31.64 7.3082 34.5781 10.2463C37.5161 13.1843 39.1667 17.1692 39.1667 21.3243C39.1648 23.6453 38.6348 25.9354 37.617 28.0214C36.5991 30.1073 35.1201 31.9343 33.2917 33.3641Z" fill="#A6D719"></path><path d="M17.6251 29.375C19.7882 29.375 21.5417 27.6215 21.5417 25.4584C21.5417 23.2952 19.7882 21.5417 17.6251 21.5417C15.4619 21.5417 13.7084 23.2952 13.7084 25.4584C13.7084 27.6215 15.4619 29.375 17.6251 29.375Z" fill="#A6D719"></path><path d="M29.3751 29.375C31.5382 29.375 33.2917 27.6215 33.2917 25.4584C33.2917 23.2952 31.5382 21.5417 29.3751 21.5417C27.212 21.5417 25.4584 23.2952 25.4584 25.4584C25.4584 27.6215 27.212 29.375 29.3751 29.375Z" fill="#A6D719"></path></svg>