<svg width="33" height="21" viewBox="0 0 33 21" fill="none" xmlns="http://www.w3.org/2000/svg">
                                            <path d="M1.22234 6.32538H7.89629C9.08195 6.32538 10.1454 6.78295 10.9032 7.50837C11.3433 6.03521 12.1745 4.68481 13.3479 3.5353C11.8444 2.48623 9.94981 1.8501 7.90851 1.8501H1.22234C0.550051 1.8501 0 2.35231 0 2.96613V5.19819C0 5.83432 0.550051 6.32538 1.22234 6.32538Z" fill="#F7F5E8"></path>
                                            <path d="M32.6973 15.5216L26.0844 12.0396C25.681 11.8275 25.1677 12.0954 25.1677 12.5194V13.7694H20.9751C19.7894 13.7694 18.726 13.3118 17.9681 12.5864C17.5281 14.0596 16.6969 15.41 15.5234 16.5595C17.0269 17.6085 18.9215 18.2447 20.9628 18.2447H25.1677V19.4946C25.1677 19.9187 25.681 20.1977 26.0844 19.9745L32.6973 16.4925C33.1006 16.2805 33.1006 15.7448 32.6973 15.5216Z" fill="#F7F5E8"></path>
                                            <path d="M32.6975 4.5843L26.0846 8.06631C25.9869 8.12211 25.8768 8.14443 25.7791 8.14443C25.4612 8.14443 25.1679 7.91007 25.1679 7.58642V6.33647H20.9753C18.7262 6.33647 16.8805 7.98819 16.8805 10.0305C16.8927 14.5616 12.8712 18.2445 7.90851 18.2445H1.22234C0.550051 18.2445 0 17.7423 0 17.1285V14.8964C0 14.2826 0.550051 13.7804 1.22234 13.7804H7.89629C10.1332 13.7804 11.9911 12.1287 11.9911 10.0863C11.9789 5.55525 16.0004 1.87235 20.9631 1.87235H25.1679V0.611237C25.1679 0.287589 25.4612 0.0532227 25.7791 0.0532227C25.8768 0.0532227 25.9869 0.0755429 26.0846 0.131344L32.6975 3.61336C33.1008 3.8254 33.1008 4.3611 32.6975 4.5843Z" fill="#F7F5E8"></path>
                                            </svg>