<svg width="21" height="20" viewBox="0 0 21 20" fill="none" xmlns="http://www.w3.org/2000/svg">
                    <path d="M19.396 7.65306C18.9592 7.10612 18.3633 6.80408 17.7183 6.80408H16.2447C16.1059 3.02449 13.3668 0 10.0195 0C6.67225 0 3.93319 3.02449 3.7944 6.80408H2.32077C1.67581 6.80408 1.07983 7.10612 0.643049 7.65306C0.0919717 8.33878 -0.108049 9.29388 0.100136 10.2122L1.86767 18C2.133 19.1755 3.04738 20 4.0883 20H15.9467C16.9876 20 17.902 19.1796 18.1673 18L19.9389 10.2122C20.1471 9.29388 19.9471 8.33878 19.396 7.65306ZM10.0195 1.66531C12.4524 1.66531 14.4445 3.94286 14.5751 6.80408H5.46396C5.59458 3.94694 7.58663 1.66531 10.0195 1.66531ZM18.3143 9.84082L16.5467 17.6327C16.4569 18.0327 16.1998 18.3347 15.9508 18.3347H4.0883C3.8393 18.3347 3.58213 18.0327 3.49232 17.6327L1.72479 9.84082C1.63091 9.42857 1.57376 8.46939 2.32077 8.46939H17.7183C18.5225 8.46939 18.4082 9.42857 18.3143 9.84082Z" fill="white"></path>
                    <path d="M5.88352 10.1265C5.42225 10.1265 5.05078 10.498 5.05078 10.9592V16.1633C5.05078 16.6245 5.42225 16.9959 5.88352 16.9959C6.34479 16.9959 6.71626 16.6245 6.71626 16.1633V10.9592C6.72034 10.502 6.34479 10.1265 5.88352 10.1265Z" fill="white"></path>
                    <path d="M9.92063 10.1265C9.45936 10.1265 9.08789 10.498 9.08789 10.9592V16.1633C9.08789 16.6245 9.45936 16.9959 9.92063 16.9959C10.3819 16.9959 10.7534 16.6245 10.7534 16.1633V10.9592C10.7534 10.502 10.3778 10.1265 9.92063 10.1265Z" fill="white"></path>
                    <path d="M13.9538 10.1265C13.4926 10.1265 13.1211 10.498 13.1211 10.9592V16.1633C13.1211 16.6245 13.4926 16.9959 13.9538 16.9959C14.4151 16.9959 14.7866 16.6245 14.7866 16.1633V10.9592C14.7866 10.502 14.4151 10.1265 13.9538 10.1265Z" fill="white"></path>
                  </svg>